<svg width="32" height="32" viewBox="0 0 32 32" fill="none" xmlns="http://www.w3.org/2000/svg">
<path fill-rule="evenodd" clip-rule="evenodd" d="M16 0C19.4234 0 22.595 1.07589 25.1967 2.90717L25.1976 2.90671C25.4907 3.11296 25.7761 3.32925 26.0542 3.55423C26.0627 3.56107 26.0711 3.56804 26.0795 3.57491C27.1387 4.43533 28.086 5.42798 28.8957 6.52849L19.5423 15.8824L28.9949 25.335C28.488 26.0395 27.9251 26.7008 27.313 27.313L27.3139 27.3139C24.4184 30.2093 20.4183 32 16 32C12.4552 32 9.18107 30.8456 6.52941 28.8943L6.52849 28.8957C6.46891 28.8518 6.41006 28.807 6.3511 28.7624C6.33723 28.7519 6.32312 28.7417 6.30928 28.7312C6.11414 28.5824 5.92279 28.429 5.73484 28.2716C5.70759 28.2488 5.68059 28.2257 5.65349 28.2027C5.58068 28.1409 5.50826 28.0787 5.43658 28.0156C5.42054 28.0015 5.40478 27.9871 5.38879 27.9729C5.31022 27.9032 5.23205 27.8331 5.15487 27.762C5.13934 27.7476 5.12393 27.7331 5.10846 27.7188C4.29031 26.9582 3.55136 26.1136 2.90671 25.1976L12.2224 15.8824L3.0046 6.66452C3.57768 5.86817 4.22183 5.12633 4.92831 4.44899C4.98518 4.39446 5.04297 4.34091 5.10064 4.28722C5.12444 4.26507 5.14794 4.2426 5.17188 4.22059C5.22855 4.16846 5.28586 4.11703 5.34329 4.06572C5.37687 4.03571 5.41056 4.00583 5.44439 3.9761C5.49857 3.92851 5.55318 3.88143 5.608 3.83456C5.63748 3.80935 5.66702 3.78419 5.69669 3.75919C5.75557 3.70958 5.81448 3.65999 5.87408 3.61121C5.90418 3.58658 5.93479 3.56256 5.96507 3.53814C6.16878 3.37391 6.37649 3.21448 6.58824 3.0602C6.61367 3.04167 6.63898 3.02298 6.66452 3.0046C9.29196 1.11388 12.5159 0 16 0ZM10.2523 25.1714C11.9178 26.2177 13.8879 26.8235 16 26.8235C18.0507 26.8235 19.9681 26.253 21.6025 25.2624L15.8824 19.5423L10.2523 25.1714ZM16 5.17647C13.9492 5.17647 12.0315 5.74645 10.3971 6.73713L15.8824 12.2224L21.4536 6.65028C19.8522 5.71386 17.989 5.17647 16 5.17647Z" fill="black"/>
<path d="M29.4398 7.31618C31.0592 9.81728 32 12.7986 32 16C32 19.1401 31.0945 22.0683 29.5317 24.5395L25.7321 20.7404C26.4307 19.3087 26.8235 17.7003 26.8235 16C26.8235 14.2371 26.4016 12.5728 25.654 11.102L29.4398 7.31618Z" fill="black"/>
<path d="M6.26746 11.2587C5.56864 12.6906 5.17647 14.2995 5.17647 16C5.17647 17.6374 5.54075 19.1896 6.19164 20.5809L2.37776 24.3948C0.870606 21.9543 0 19.079 0 16C0 12.8596 0.905257 9.93089 2.46829 7.45956L6.26746 11.2587Z" fill="black"/>
</svg>
